<svg xmlns="http://www.w3.org/2000/svg" xmlns:xlink="http://www.w3.org/1999/xlink" contentStyleType="text/css" height="288px" preserveAspectRatio="none" style="width:537px;height:288px;background:#FFFFFF;" version="1.1" viewBox="0 0 537 288" width="537px" zoomAndPan="magnify"><defs/><g><!--class Device--><g id="elem_Device"><rect codeLine="1" fill="#F1F1F1" height="115.7578" id="Device" rx="2.5" ry="2.5" style="stroke:#181818;stroke-width:0.5;" width="215.3555" x="173.62" y="7"/><ellipse cx="254.3046" cy="23" fill="#A9DCDF" rx="11" ry="11" style="stroke:#181818;stroke-width:1.0;"/><path d="M256.1014,25.7031 L256.7108,28.25 L259.7108,28.25 L256.1014,16.4688 L252.7264,16.4688 L249.1171,28.25 L252.0389,28.25 L252.6483,25.7031 L256.1014,25.7031 Z M253.1014,23.6875 L254.3671,18.4688 L255.6483,23.6875 L253.1014,23.6875 Z " fill="#000000"/><text fill="#000000" font-family="sans-serif" font-size="14" font-style="italic" lengthAdjust="spacing" textLength="45.4863" x="274.8046" y="28.0928">Device</text><line style="stroke:#181818;stroke-width:0.5;" x1="174.62" x2="387.9755" y1="39" y2="39"/><rect fill="none" height="6" style="stroke:#C82930;stroke-width:1.0;" width="6" x="181.62" y="49.9697"/><text fill="#000000" font-family="sans-serif" font-size="14" lengthAdjust="spacing" textLength="83.6104" x="193.62" y="56.5625">name: String</text><line style="stroke:#181818;stroke-width:0.5;" x1="174.62" x2="387.9755" y1="63.9395" y2="63.9395"/><rect fill="#F24D5C" height="6" style="stroke:#C82930;stroke-width:1.0;" width="6" x="181.62" y="74.9092"/><text fill="#000000" font-family="sans-serif" font-size="14" lengthAdjust="spacing" textLength="189.3555" x="193.62" y="81.502">abstract innerTick(Calendar)</text><ellipse cx="184.62" cy="94.8486" fill="#84BE84" rx="3" ry="3" style="stroke:#038048;stroke-width:1.0;"/><text fill="#000000" font-family="sans-serif" font-size="14" lengthAdjust="spacing" textLength="117.4277" x="193.62" y="98.4414">getName(): String</text><ellipse cx="184.62" cy="111.7881" fill="#84BE84" rx="3" ry="3" style="stroke:#038048;stroke-width:1.0;"/><text fill="#000000" font-family="sans-serif" font-size="14" lengthAdjust="spacing" textLength="172.5801" x="193.62" y="115.3809">tick(Calendar, Logger): int</text></g><!--class SolarPanel--><g id="elem_SolarPanel"><rect codeLine="8" fill="#F1F1F1" height="64.9395" id="SolarPanel" rx="2.5" ry="2.5" style="stroke:#181818;stroke-width:0.5;" width="144.6035" x="7" y="199.7"/><ellipse cx="40.9347" cy="215.7" fill="#ADD1B2" rx="11" ry="11" style="stroke:#181818;stroke-width:1.0;"/><path d="M41.0285,209.8563 C37.9035,209.8563 35.5128,212.0906 35.5128,216.0281 C35.5128,220.075 37.7941,222.2313 40.9816,222.2313 C42.8097,222.2313 44.0753,221.5281 44.9503,220.6375 L43.6847,219.0281 C43.0285,219.5594 42.3097,220.075 41.1378,220.075 C39.5285,220.075 38.4035,218.8719 38.4035,216.0281 C38.4035,213.1375 39.591,211.9344 41.091,211.9344 C42.0128,211.9344 42.7941,212.2781 43.4347,212.8094 L44.7941,211.1531 C43.8097,210.3406 42.716,209.8563 41.0285,209.8563 Z " fill="#000000"/><text fill="#000000" font-family="sans-serif" font-size="14" lengthAdjust="spacing" textLength="70.5264" x="59.1424" y="220.7928">SolarPanel</text><line style="stroke:#181818;stroke-width:0.5;" x1="8" x2="150.6035" y1="231.7" y2="231.7"/><line style="stroke:#181818;stroke-width:0.5;" x1="8" x2="150.6035" y1="239.7" y2="239.7"/><ellipse cx="18" cy="253.6697" fill="#84BE84" rx="3" ry="3" style="stroke:#038048;stroke-width:1.0;"/><text fill="#000000" font-family="sans-serif" font-size="14" lengthAdjust="spacing" textLength="118.6035" x="27" y="257.2625">innerTick(Logger)</text></g><!--class Store--><g id="elem_Store"><rect codeLine="12" fill="#F1F1F1" height="98.8184" id="Store" rx="2.5" ry="2.5" style="stroke:#181818;stroke-width:0.5;" width="190.1719" x="186.22" y="182.76"/><ellipse cx="259.3611" cy="198.76" fill="#ADD1B2" rx="11" ry="11" style="stroke:#181818;stroke-width:1.0;"/><path d="M259.4549,192.9163 C256.3299,192.9163 253.9392,195.1506 253.9392,199.0881 C253.9392,203.135 256.2205,205.2913 259.408,205.2913 C261.2361,205.2913 262.5017,204.5881 263.3767,203.6975 L262.1111,202.0881 C261.4549,202.6194 260.7361,203.135 259.5642,203.135 C257.9549,203.135 256.8299,201.9319 256.8299,199.0881 C256.8299,196.1975 258.0174,194.9944 259.5174,194.9944 C260.4392,194.9944 261.2205,195.3381 261.8611,195.8694 L263.2205,194.2131 C262.2361,193.4006 261.1424,192.9163 259.4549,192.9163 Z " fill="#000000"/><text fill="#000000" font-family="sans-serif" font-size="14" lengthAdjust="spacing" textLength="35.3896" x="279.8611" y="203.8528">Store</text><line style="stroke:#181818;stroke-width:0.5;" x1="187.22" x2="375.3919" y1="214.76" y2="214.76"/><line style="stroke:#181818;stroke-width:0.5;" x1="187.22" x2="375.3919" y1="222.76" y2="222.76"/><ellipse cx="197.22" cy="236.7297" fill="#84BE84" rx="3" ry="3" style="stroke:#038048;stroke-width:1.0;"/><text fill="#000000" font-family="sans-serif" font-size="14" lengthAdjust="spacing" textLength="118.6035" x="206.22" y="240.3225">innerTick(Logger)</text><ellipse cx="197.22" cy="253.6692" fill="#84BE84" rx="3" ry="3" style="stroke:#038048;stroke-width:1.0;"/><text fill="#000000" font-family="sans-serif" font-size="14" lengthAdjust="spacing" textLength="164.1719" x="206.22" y="257.262">getCurrentCapacity(): int</text><ellipse cx="197.22" cy="270.6086" fill="#84BE84" rx="3" ry="3" style="stroke:#038048;stroke-width:1.0;"/><text fill="#000000" font-family="sans-serif" font-size="14" lengthAdjust="spacing" textLength="116.7715" x="206.22" y="274.2014">tryCharge(int): int</text></g><!--class StableDevice--><g id="elem_StableDevice"><rect fill="#F1F1F1" height="48" id="StableDevice" rx="2.5" ry="2.5" style="stroke:#181818;stroke-width:0.5;" width="119.2334" x="411.69" y="208.17"/><ellipse cx="426.69" cy="224.17" fill="#ADD1B2" rx="11" ry="11" style="stroke:#181818;stroke-width:1.0;"/><path d="M426.7838,218.3263 C423.6588,218.3263 421.2681,220.5606 421.2681,224.4981 C421.2681,228.545 423.5494,230.7013 426.7369,230.7013 C428.565,230.7013 429.8306,229.9981 430.7056,229.1075 L429.44,227.4981 C428.7838,228.0294 428.065,228.545 426.8931,228.545 C425.2838,228.545 424.1588,227.3419 424.1588,224.4981 C424.1588,221.6075 425.3463,220.4044 426.8463,220.4044 C427.7681,220.4044 428.5494,220.7481 429.19,221.2794 L430.5494,219.6231 C429.565,218.8106 428.4713,218.3263 426.7838,218.3263 Z " fill="#000000"/><text fill="#000000" font-family="sans-serif" font-size="14" lengthAdjust="spacing" textLength="87.2334" x="440.69" y="229.2628">StableDevice</text><line style="stroke:#181818;stroke-width:0.5;" x1="412.69" x2="529.9234" y1="240.17" y2="240.17"/><line style="stroke:#181818;stroke-width:0.5;" x1="412.69" x2="529.9234" y1="248.17" y2="248.17"/></g><!--reverse link Device to SolarPanel--><g id="link_Device_SolarPanel"><path codeLine="18" d="M197.288,134.6273 C166.178,160.0773 144.67,177.68 118.36,199.21 " fill="none" id="Device-backto-SolarPanel" style="stroke:#181818;stroke-width:1.0;"/><polygon fill="none" points="211.22,123.23,193.4889,129.9833,201.0871,139.2713,211.22,123.23" style="stroke:#181818;stroke-width:1.0;"/></g><!--reverse link Device to StableDevice--><g id="link_Device_StableDevice"><path codeLine="20" d="M360.8005,135.0439 C394.2405,164.1339 419.42,186.04 444.6,207.94 " fill="none" id="Device-backto-StableDevice" style="stroke:#181818;stroke-width:1.0;"/><polygon fill="none" points="347.22,123.23,356.8626,139.5708,364.7385,130.5171,347.22,123.23" style="stroke:#181818;stroke-width:1.0;"/></g><!--reverse link Device to Store--><g id="link_Device_Store"><path codeLine="22" d="M281.3,141.23 C281.3,160.53 281.3,163.87 281.3,182.44 " fill="none" id="Device-backto-Store" style="stroke:#181818;stroke-width:1.0;"/><polygon fill="none" points="281.3,123.23,275.3,141.23,287.3,141.23,281.3,123.23" style="stroke:#181818;stroke-width:1.0;"/></g><!--SRC=[TOz12i8m44NtESKiKsel8ExYKaIe5vZ68GPZAjDHAEhT3Mt4K73xvtt-6-m6ORG2Dk0mm9OUtX8y5K034Q-qXbROHpS5-8LzZCH7Ro_QOA1uGguIK8CZsQUIhefQ3LA2AzZrpX4dn4THRwNcvROFo0UC5ARrkjZ8XOALdkalbaNCdPcY6BoXzJBgF3W9yMZEo8vqIduY-VdDgsaAdKKks0MQa-KbIQaF]--></g></svg>