<svg xmlns="http://www.w3.org/2000/svg" xmlns:xlink="http://www.w3.org/1999/xlink" contentStyleType="text/css" height="356px" preserveAspectRatio="none" style="width:720px;height:356px;background:#FFFFFF;" version="1.1" viewBox="0 0 720 356" width="720px" zoomAndPan="magnify"><defs/><g><!--class Logger--><g id="elem_Logger"><rect codeLine="1" fill="#F1F1F1" height="217.3945" id="Logger" rx="2.5" ry="2.5" style="stroke:#181818;stroke-width:0.5;" width="345.3887" x="7" y="7"/><ellipse cx="151.9868" cy="23" fill="#ADD1B2" rx="11" ry="11" style="stroke:#181818;stroke-width:1.0;"/><path d="M152.0806,17.1563 C148.9556,17.1563 146.5649,19.3906 146.5649,23.3281 C146.5649,27.375 148.8462,29.5313 152.0337,29.5313 C153.8618,29.5313 155.1274,28.8281 156.0024,27.9375 L154.7368,26.3281 C154.0806,26.8594 153.3618,27.375 152.1899,27.375 C150.5806,27.375 149.4556,26.1719 149.4556,23.3281 C149.4556,20.4375 150.6431,19.2344 152.1431,19.2344 C153.0649,19.2344 153.8462,19.5781 154.4868,20.1094 L155.8462,18.4531 C154.8618,17.6406 153.7681,17.1563 152.0806,17.1563 Z " fill="#000000"/><text fill="#000000" font-family="sans-serif" font-size="14" lengthAdjust="spacing" textLength="46.915" x="172.4868" y="28.0928">Logger</text><line style="stroke:#181818;stroke-width:0.5;" x1="8" x2="351.3887" y1="39" y2="39"/><rect fill="none" height="6" style="stroke:#C82930;stroke-width:1.0;" width="6" x="15" y="49.9697"/><text fill="#000000" font-family="sans-serif" font-size="14" lengthAdjust="spacing" textLength="97.1387" x="27" y="56.5625">directory: Path</text><rect fill="none" height="6" style="stroke:#C82930;stroke-width:1.0;" width="6" x="15" y="66.9092"/><text fill="#000000" font-family="sans-serif" font-size="14" lengthAdjust="spacing" textLength="273.7656" x="27" y="73.502">sinks: ConcurrentMap&lt;String, Actor.Ref&gt;</text><rect fill="none" height="6" style="stroke:#C82930;stroke-width:1.0;" width="6" x="15" y="83.8486"/><text fill="#000000" font-family="sans-serif" font-size="14" lengthAdjust="spacing" textLength="126.9434" x="27" y="90.4414">mainLog: Actor.Ref</text><rect fill="none" height="6" style="stroke:#C82930;stroke-width:1.0;" width="6" x="15" y="100.7881"/><text fill="#000000" font-family="sans-serif" font-size="14" lengthAdjust="spacing" textLength="94.6436" x="27" y="107.3809">fmt: Formatter</text><rect fill="none" height="6" style="stroke:#C82930;stroke-width:1.0;" width="6" x="15" y="117.7275"/><text fill="#000000" font-family="sans-serif" font-size="14" lengthAdjust="spacing" textLength="283.3906" x="27" y="124.3203">timestampGenerator: TimestampGenerator</text><line style="stroke:#181818;stroke-width:0.5;" x1="8" x2="351.3887" y1="131.6973" y2="131.6973"/><ellipse cx="18" cy="145.667" fill="#84BE84" rx="3" ry="3" style="stroke:#038048;stroke-width:1.0;"/><text fill="#000000" font-family="sans-serif" font-size="14" lengthAdjust="spacing" text-decoration="underline" textLength="293.8018" x="27" y="149.2598">open(Path, Formatter, TimestampGenerator)</text><ellipse cx="18" cy="162.6064" fill="#84BE84" rx="3" ry="3" style="stroke:#038048;stroke-width:1.0;"/><text fill="#000000" font-family="sans-serif" font-size="14" lengthAdjust="spacing" textLength="270.1357" x="27" y="166.1992">logDevice(Device, String, attrs: Object...)</text><ellipse cx="18" cy="179.5459" fill="#84BE84" rx="3" ry="3" style="stroke:#038048;stroke-width:1.0;"/><text fill="#000000" font-family="sans-serif" font-size="14" lengthAdjust="spacing" textLength="170.7959" x="27" y="183.1387">log(String, attrs: Object...)</text><ellipse cx="18" cy="196.4854" fill="#84BE84" rx="3" ry="3" style="stroke:#038048;stroke-width:1.0;"/><text fill="#000000" font-family="sans-serif" font-size="14" lengthAdjust="spacing" textLength="319.3887" x="27" y="200.0781">getTimestampGenerator(): TimestampGenerator</text><ellipse cx="18" cy="213.4248" fill="#84BE84" rx="3" ry="3" style="stroke:#038048;stroke-width:1.0;"/><text fill="#000000" font-family="sans-serif" font-size="14" lengthAdjust="spacing" textLength="98.834" x="27" y="217.0176">getPath(): Path</text></g><!--class Closeable--><g id="elem_Closeable"><rect codeLine="14" fill="#F1F1F1" height="64.9395" id="Closeable" rx="2.5" ry="2.5" style="stroke:#181818;stroke-width:0.5;" width="98.0762" x="130.66" y="284.39"/><ellipse cx="145.66" cy="300.39" fill="#B4A7E5" rx="11" ry="11" style="stroke:#181818;stroke-width:1.0;"/><path d="M149.5819,294.6088 L141.9413,294.6088 L141.9413,296.6556 L144.3631,296.6556 L144.3631,304.3275 L141.9413,304.3275 L141.9413,306.39 L149.5819,306.39 L149.5819,304.3275 L147.16,304.3275 L147.16,296.6556 L149.5819,296.6556 L149.5819,294.6088 Z " fill="#000000"/><text fill="#000000" font-family="sans-serif" font-size="14" font-style="italic" lengthAdjust="spacing" textLength="66.0762" x="159.66" y="305.4828">Closeable</text><line style="stroke:#181818;stroke-width:0.5;" x1="131.66" x2="227.7362" y1="316.39" y2="316.39"/><line style="stroke:#181818;stroke-width:0.5;" x1="131.66" x2="227.7362" y1="324.39" y2="324.39"/><ellipse cx="141.66" cy="338.3597" fill="#84BE84" rx="3" ry="3" style="stroke:#038048;stroke-width:1.0;"/><text fill="#000000" font-family="sans-serif" font-size="14" lengthAdjust="spacing" textLength="45.5479" x="150.66" y="341.9525">close()</text></g><!--class Formatter--><g id="elem_Formatter"><rect codeLine="20" fill="#F1F1F1" height="64.9395" id="Formatter" rx="2.5" ry="2.5" style="stroke:#181818;stroke-width:0.5;" width="325.9199" x="387.73" y="284.39"/><ellipse cx="513.7779" cy="300.39" fill="#B4A7E5" rx="11" ry="11" style="stroke:#181818;stroke-width:1.0;"/><path d="M517.6997,294.6088 L510.0591,294.6088 L510.0591,296.6556 L512.481,296.6556 L512.481,304.3275 L510.0591,304.3275 L510.0591,306.39 L517.6997,306.39 L517.6997,304.3275 L515.2779,304.3275 L515.2779,296.6556 L517.6997,296.6556 L517.6997,294.6088 Z " fill="#000000"/><text fill="#000000" font-family="sans-serif" font-size="14" font-style="italic" lengthAdjust="spacing" textLength="65.3242" x="534.2779" y="305.4828">Formatter</text><line style="stroke:#181818;stroke-width:0.5;" x1="388.73" x2="712.6499" y1="316.39" y2="316.39"/><line style="stroke:#181818;stroke-width:0.5;" x1="388.73" x2="712.6499" y1="324.39" y2="324.39"/><ellipse cx="398.73" cy="338.3597" fill="#84BE84" rx="3" ry="3" style="stroke:#038048;stroke-width:1.0;"/><text fill="#000000" font-family="sans-serif" font-size="14" lengthAdjust="spacing" textLength="299.9199" x="407.73" y="341.9525">format(Calendar, msg: String, attrs: Object[]):</text></g><!--class LineFormatter--><g id="elem_LineFormatter"><rect codeLine="24" fill="#F1F1F1" height="64.9395" id="LineFormatter" rx="2.5" ry="2.5" style="stroke:#181818;stroke-width:0.5;" width="325.9199" x="387.73" y="83.22"/><ellipse cx="500.2461" cy="99.22" fill="#ADD1B2" rx="11" ry="11" style="stroke:#181818;stroke-width:1.0;"/><path d="M500.3399,93.3762 C497.2149,93.3762 494.8242,95.6106 494.8242,99.5481 C494.8242,103.595 497.1055,105.7512 500.293,105.7512 C502.1211,105.7512 503.3867,105.0481 504.2617,104.1575 L502.9961,102.5481 C502.3399,103.0794 501.6211,103.595 500.4492,103.595 C498.8399,103.595 497.7149,102.3919 497.7149,99.5481 C497.7149,96.6575 498.9024,95.4544 500.4024,95.4544 C501.3242,95.4544 502.1055,95.7981 502.7461,96.3294 L504.1055,94.6731 C503.1211,93.8606 502.0274,93.3762 500.3399,93.3762 Z " fill="#000000"/><text fill="#000000" font-family="sans-serif" font-size="14" lengthAdjust="spacing" textLength="92.3877" x="520.7461" y="104.3128">LineFormatter</text><line style="stroke:#181818;stroke-width:0.5;" x1="388.73" x2="712.6499" y1="115.22" y2="115.22"/><line style="stroke:#181818;stroke-width:0.5;" x1="388.73" x2="712.6499" y1="123.22" y2="123.22"/><ellipse cx="398.73" cy="137.1897" fill="#84BE84" rx="3" ry="3" style="stroke:#038048;stroke-width:1.0;"/><text fill="#000000" font-family="sans-serif" font-size="14" lengthAdjust="spacing" textLength="299.9199" x="407.73" y="140.7825">format(Calendar, msg: String, attrs: Object[]):</text></g><!--reverse link Logger to Closeable--><g id="link_Logger_Closeable"><path codeLine="18" d="M179.69,242.73 C179.69,264.49 179.69,267.71 179.69,284.2 " fill="none" id="Logger-backto-Closeable" style="stroke:#181818;stroke-width:1.0;"/><polygon fill="none" points="179.69,224.73,173.69,242.73,185.69,242.73,179.69,224.73" style="stroke:#181818;stroke-width:1.0;"/></g><!--reverse link LineFormatter to Formatter--><g id="link_LineFormatter_Formatter"><path codeLine="28" d="M550.69,166.25 C550.69,203.44 550.69,246.86 550.69,284.12 " fill="none" id="LineFormatter-backto-Formatter" style="stroke:#181818;stroke-width:1.0;"/><polygon fill="none" points="550.69,148.25,544.69,166.25,556.69,166.25,550.69,148.25" style="stroke:#181818;stroke-width:1.0;"/></g><!--SRC=[fP71JiCm38RlVGeVKwth0rGJ4Yg22mW4t107BtDBe4cgn22XiNV7oSOAsk32AVAlxtT-sth06E7Izpq5M1S0SrYPG9fzU6_W1lafQz6ubzX0wvr-3O4SN-6ukEDWN5_1QQBhM-fECclHE6dOJ7gMEyiDdFjWaPb2bjXOYensl2170OLkuFv04tG6Qz7Ow0tuaPnAkQgfMNN4LMRRuFipUZEQrFQfu2kq68DCTBrybc7hkjxpwc-Y9pxyJ9M_1XS-fKr4tkQcA8oJp1rgWdRmaN0vK5xz37IgLPcWtKaM7_FvX7ttxgVVURjSgnO7SYkKdTWeDpWwpCEZf4cVwEtrZQEfsp_Q_MoKeqy7_mG0]--></g></svg>